<svg xmlns="http://www.w3.org/2000/svg" viewBox="0 0 512 512" width="512" height="512">
  <defs>
    <linearGradient id="sky3" x1="0" y1="0" x2="0" y2="1">
      <stop offset="0%" stop-color="#7C3AED"/>
      <stop offset="50%" stop-color="#E040FB"/>
      <stop offset="100%" stop-color="#1E3A5F"/>
    </linearGradient>
  </defs>
  <!-- Fondo circular -->
  <circle cx="256" cy="256" r="240" fill="url(#sky3)"/>
  <circle cx="256" cy="256" r="240" fill="none" stroke="#fff" stroke-width="6"/>
  
  <!-- Sol poniente -->
  <circle cx="170" cy="150" r="50" fill="#FF6D00" opacity="0.8"/>
  <circle cx="170" cy="150" r="35" fill="#FF9100" opacity="0.9"/>
  
  <!-- Silueta urbana -->
  <rect x="65" y="275" width="58" height="125" fill="#0D1B2A" rx="4"/>
  <rect x="133" y="235" width="44" height="165" fill="#0D1B2A" rx="4"/>
  <rect x="187" y="255" width="52" height="145" fill="#0D1B2A" rx="4"/>
  <rect x="249" y="215" width="40" height="185" fill="#0D1B2A" rx="4"/>
  <rect x="299" y="265" width="64" height="135" fill="#0D1B2A" rx="4"/>
  <rect x="373" y="245" width="50" height="155" fill="#0D1B2A" rx="4"/>
  
  <!-- Ventanas iluminadas -->
  <rect x="143" y="250" width="8" height="10" fill="#FF9100" rx="2"/><rect x="160" y="250" width="8" height="10" fill="#FF9100" rx="2"/><rect x="143" y="273" width="8" height="10" fill="#FF9100" rx="2"/><rect x="197" y="273" width="8" height="10" fill="#FF9100" rx="2"/><rect x="220" y="273" width="8" height="10" fill="#FF9100" rx="2"/><rect x="197" y="295" width="8" height="10" fill="#FF9100" rx="2"/><rect x="261" y="235" width="8" height="10" fill="#FF9100" rx="2"/><rect x="261" y="260" width="8" height="10" fill="#FF9100" rx="2"/><rect x="261" y="285" width="8" height="10" fill="#FF9100" rx="2"/><rect x="311" y="288" width="8" height="10" fill="#FF9100" rx="2"/><rect x="336" y="288" width="8" height="10" fill="#FF9100" rx="2"/><rect x="311" y="313" width="8" height="10" fill="#FF9100" rx="2"/><rect x="385" y="263" width="8" height="10" fill="#FF9100" rx="2"/><rect x="400" y="263" width="8" height="10" fill="#FF9100" rx="2"/>
  
  <!-- Cruz (Predicación) -->
  <g transform="translate(155,335)">
    <rect x="18" y="0" width="18" height="60" fill="#FF9100" rx="3"/>
    <rect x="0" y="18" width="54" height="14" fill="#FF9100" rx="3"/>
  </g>
  
  <text x="256" y="470" text-anchor="middle" font-family="Arial, sans-serif" font-size="60" font-weight="bold" fill="#fff" letter-spacing="6">PPAM</text>
  <text x="256" y="498" text-anchor="middle" font-family="Arial, sans-serif" font-size="22" fill="#FF9100" letter-spacing="3">COSTA</text>
</svg>
