<svg xmlns="http://www.w3.org/2000/svg" viewBox="0 0 512 512" width="512" height="512">
  <defs>
    <linearGradient id="sky2" x1="0" y1="0" x2="0" y2="1">
      <stop offset="0%" stop-color="#26A69A"/>
      <stop offset="100%" stop-color="#00695C"/>
    </linearGradient>
  </defs>
  <!-- Fondo circular -->
  <circle cx="256" cy="256" r="240" fill="url(#sky2)"/>
  <circle cx="256" cy="256" r="240" fill="none" stroke="#fff" stroke-width="6"/>
  
  <!-- Sol -->
  <circle cx="170" cy="120" r="45" fill="#FFCA28" opacity="0.9"/>
  
  <!-- Silueta urbana -->
  <rect x="70" y="270" width="55" height="130" fill="#004D40" rx="4"/>
  <rect x="135" y="230" width="42" height="170" fill="#004D40" rx="4"/>
  <rect x="187" y="250" width="58" height="150" fill="#004D40" rx="4"/>
  <rect x="255" y="210" width="38" height="190" fill="#004D40" rx="4"/>
  <rect x="303" y="260" width="62" height="140" fill="#004D40" rx="4"/>
  <rect x="375" y="240" width="48" height="160" fill="#004D40" rx="4"/>
  
  <!-- Ventanas -->
  <rect x="145" y="245" width="8" height="10" fill="#FFCA28" rx="2"/><rect x="162" y="245" width="8" height="10" fill="#FFCA28" rx="2"/><rect x="145" y="268" width="8" height="10" fill="#FFCA28" rx="2"/><rect x="197" y="268" width="8" height="10" fill="#FFCA28" rx="2"/><rect x="220" y="268" width="8" height="10" fill="#FFCA28" rx="2"/><rect x="197" y="290" width="8" height="10" fill="#FFCA28" rx="2"/><rect x="267" y="230" width="8" height="10" fill="#FFCA28" rx="2"/><rect x="267" y="255" width="8" height="10" fill="#FFCA28" rx="2"/><rect x="267" y="280" width="8" height="10" fill="#FFCA28" rx="2"/><rect x="315" y="280" width="8" height="10" fill="#FFCA28" rx="2"/><rect x="340" y="280" width="8" height="10" fill="#FFCA28" rx="2"/><rect x="315" y="305" width="8" height="10" fill="#FFCA28" rx="2"/><rect x="387" y="258" width="8" height="10" fill="#FFCA28" rx="2"/><rect x="402" y="258" width="8" height="10" fill="#FFCA28" rx="2"/>
  
  <!-- Libro abierto (Predicación) -->
  <g transform="translate(145,335)">
    <path d="M0,10 Q25,-10 50,10 L50,60 Q25,45 0,60 Z" fill="#FFCA28"/>
    <path d="M50,10 Q75,-10 100,10 L100,60 Q75,45 50,60 Z" fill="#FFB300"/>
    <line x1="50" y1="10" x2="50" y2="60" stroke="#004D40" stroke-width="2"/>
  </g>
  
  <text x="256" y="470" text-anchor="middle" font-family="Arial, sans-serif" font-size="60" font-weight="bold" fill="#fff" letter-spacing="6">PPAM</text>
  <text x="256" y="498" text-anchor="middle" font-family="Arial, sans-serif" font-size="22" fill="#FFCA28" letter-spacing="3">COSTA</text>
</svg>
